<svg xmlns="http://www.w3.org/2000/svg" viewBox="0 0 64 64" width="64" height="64">
  <defs>
    <linearGradient id="g" x1="0" y1="0" x2="1" y2="1">
      <stop offset="0" stop-color="#34c585"/>
      <stop offset="1" stop-color="#136f4f"/>
    </linearGradient>
  </defs>
  <rect width="64" height="64" rx="16" fill="url(#g)"/>
  <!-- ear / sound capture -->
  <path d="M24 44c-5 0-9-4-9-12 0-9 7-16 16-16s16 6 16 15c0 7-5 10-9 10-3 0-4-2-4-4s2-3 2-6c0-3-2-5-5-5s-5 2-5 6c0 6 1 8 1 12z"
        fill="none" stroke="#fffdf8" stroke-width="3.4" stroke-linecap="round" stroke-linejoin="round"/>
  <!-- recording dot -->
  <circle cx="44" cy="20" r="5" fill="#fd7e14"/>
</svg>
